<?xml version="1.0" encoding="UTF-8"?>
<svg id="Calque_2" data-name="Calque 2" xmlns="http://www.w3.org/2000/svg" viewBox="0 0 164.56 82.48">
  <g id="Calque_1-2" data-name="Calque 1">
    <g>
      <g>
        <path d="m0,33.75h11.57c2.52,0,4.41.62,5.66,1.86,1.26,1.24,1.88,3.01,1.88,5.3s-.68,4.2-2.05,5.53c-1.37,1.33-3.45,1.99-6.26,1.99h-3.81v8.66H0v-23.35Zm6.99,9.95h1.71c1.34,0,2.28-.24,2.83-.73.54-.48.81-1.1.81-1.85s-.24-1.35-.71-1.86-1.36-.76-2.66-.76h-1.98v5.21Z" stroke-width="0"/>
        <path d="m20.48,33.75h7.73l4.54,7.88,4.55-7.88h7.69l-8.76,13.57v9.78h-6.98v-9.78l-8.77-13.57Z" stroke-width="0"/>
        <path d="m47.32,57.1v-23.35h11.6c2.15,0,3.79.19,4.93.57,1.14.38,2.05,1.09,2.75,2.13.7,1.04,1.04,2.3,1.04,3.78,0,1.3-.27,2.41-.8,3.35-.53.94-1.27,1.7-2.2,2.29-.59.37-1.41.68-2.44.92.83.29,1.43.57,1.81.86.26.19.63.6,1.11,1.23.49.63.81,1.11.97,1.45l3.37,6.77h-7.86l-3.72-7.14c-.47-.92-.89-1.52-1.26-1.8-.5-.36-1.07-.54-1.71-.54h-.61v9.48h-6.99Zm6.99-13.89h2.93c.32,0,.93-.11,1.84-.32.46-.1.84-.34,1.13-.73.29-.39.44-.84.44-1.35,0-.75-.23-1.33-.69-1.74s-1.33-.61-2.6-.61h-3.06v4.75Z" stroke-width="0"/>
        <path d="m85.55,53.25h-7.9l-1.1,3.85h-7.11l8.47-23.35h7.59l8.46,23.35h-7.29l-1.13-3.85Zm-1.44-5.05l-2.49-8.39-2.46,8.39h4.95Z" stroke-width="0"/>
        <path d="m96.1,33.75h9.15l3.53,14.21,3.5-14.21h9.15v23.35h-5.7v-17.81l-4.39,17.81h-5.16l-4.38-17.81v17.81h-5.7v-23.35Z" stroke-width="0"/>
        <path d="m143.84,33.75h10.34c2.04,0,3.69.29,4.94.86,1.25.57,2.29,1.4,3.11,2.47.82,1.07,1.41,2.32,1.78,3.74.37,1.42.55,2.93.55,4.52,0,2.5-.27,4.43-.82,5.81s-1.31,2.53-2.28,3.46-2.02,1.55-3.13,1.86c-1.53.42-2.91.64-4.15.64h-10.34v-23.35Zm6.96,5.29v12.76h1.71c1.45,0,2.49-.17,3.1-.5s1.1-.92,1.44-1.75.52-2.18.52-4.05c0-2.47-.39-4.17-1.17-5.08-.78-.91-2.07-1.37-3.87-1.37h-1.74Z" stroke-width="0"/>
      </g>
      <polygon points="119.27 20.52 146.69 26.03 133.76 12.5 119.27 20.52" fill="#12599c" stroke-width="0"/>
      <g>
        <path d="m137.38,71.98c-.79,1.86-1.44,3.44-1.93,4.73-.03.07-.12.3-.27.69-.15.39-.25.64-.3.77-.05.13-.13.36-.24.69-.11.33-.19.59-.23.79-.04.19-.08.43-.13.7s-.08.52-.09.75c.44-.27,1.22-.95,2.34-2.05,1.12-1.1,2.18-2.22,3.18-3.39.08-.1.2-.16.35-.19s.29,0,.41.07c.12.07.19.17.22.29s0,.24-.08.34c-.42.5-1.28,1.45-2.58,2.86-.82.88-1.54,1.59-2.16,2.13-.29.24-.54.43-.74.58-.21.15-.47.29-.78.44-.32.15-.64.23-.95.26-.66.06-1.23,0-1.7-.22-.47-.21-.78-.57-.92-1.08-.07-.27-.1-.56-.11-.86,0-.29.02-.6.09-.92.07-.32.14-.6.21-.84.07-.24.16-.53.27-.87.36-1.04.83-2.2,1.43-3.47.07-.13.43-.93,1.1-2.4.67-1.47,1.36-2.96,2.07-4.48.71-1.52,1.28-2.68,1.69-3.48-.62.33-1.37.94-2.24,1.83-1.3,1.3-2.81,3.13-4.53,5.49-1.95,2.66-3.77,5.4-5.48,8.22v.11c-.11.06-.2.08-.28.08-.36,0-.7-.02-1.02-.05-.32-.03-.66-.09-1.01-.18-.35-.09-.65-.22-.88-.4-.24-.18-.39-.39-.46-.64-.07-.27-.1-.56-.11-.86,0-.29.02-.6.09-.92.07-.32.14-.6.21-.84.07-.24.16-.53.27-.87.36-1.03.83-2.18,1.43-3.46.07-.13.45-.96,1.14-2.49.69-1.53,1.4-3.07,2.12-4.61s1.29-2.7,1.7-3.46c-.2.08-.42.21-.68.37-.61.4-1.3,1.02-2.08,1.84-1.34,1.44-2.85,3.45-4.55,6.03-1.48,2.24-2.98,4.72-4.51,7.45-.34.88-.64,1.68-.88,2.4-.25.73-.42,1.3-.54,1.72-.11.42-.2.78-.27,1.07-.07.3-.1.5-.1.61l-.02.15c-1.43-.24-2.28-1.21-2.54-2.91.03-.73.18-1.58.47-2.54s.63-1.93,1.05-2.9c.42-.96.87-1.97,1.37-3.03.5-1.06.99-2.06,1.48-3.01s.93-1.87,1.32-2.75.7-1.66.93-2.32c.23-.66.33-1.22.3-1.67-.03-.45-.22-.74-.57-.86-.27-.09-.7-.03-1.3.18-.6.21-1.27.52-2,.93s-1.47.91-2.22,1.5c-.75.59-1.43,1.19-2.02,1.81-.59.62-1.04,1.26-1.34,1.94-.3.67-.38,1.28-.22,1.81.05.14.21.22.47.23.26.02.47-.02.63-.11.26-.12.54-.3.82-.54.28-.24.53-.46.73-.66.2-.2.46-.37.79-.53.33-.16.69-.24,1.07-.25,1.06.12,1.59.43,1.61.93.03.49-.4.98-1.27,1.46-1.11.64-2.39.96-3.83.97-.78,0-1.54-.09-2.26-.3-.7-.18-1.22-.44-1.55-.8s-.48-.75-.44-1.18c.04-.43.17-.85.38-1.26.21-.41.49-.8.83-1.18,1.27-1.47,3.03-2.79,5.28-3.94,2.21-1.14,4.21-1.77,6-1.89,1.87-.12,3.02.39,3.47,1.52.46,1.14.14,2.84-.97,5.1-.08.18-.17.36-.28.55,1.24-1.76,2.38-3.19,3.41-4.3.95-1.02,1.82-1.76,2.6-2.22.78-.46,1.52-.65,2.2-.59v.06c.28-.1.61.03,1.01.4.4.37.65.68.75.93.23.53.23,1.11,0,1.74-.04.08-.33.74-.87,1.96-.86,1.95-1.5,3.42-1.93,4.41-.79,1.86-1.44,3.44-1.93,4.73-.56,1.46-.89,2.43-1.01,2.89,1.42-2.22,2.79-4.23,4.11-6.04,1.76-2.41,3.31-4.29,4.65-5.62.81-.81,1.53-1.42,2.18-1.84.79-.49,1.52-.71,2.16-.66.28-.12.62,0,1.02.37.4.37.66.68.76.94.22.53.22,1.11,0,1.74-.04.08-.33.74-.87,1.96-.86,1.95-1.5,3.42-1.92,4.41Z" fill="#0087ca" stroke-width="0"/>
        <path d="m151.49,73.24c.14-.02.26,0,.38.04.11.05.18.12.22.21.03.09.02.18-.05.26-.89,1-1.8,1.89-2.73,2.65-.93.76-1.7,1.2-2.31,1.3-1.1.18-1.88.12-2.34-.2-.46-.32-.68-.81-.66-1.47-.08.11-.19.27-.34.48-.15.21-.27.37-.36.5-.09.12-.2.25-.33.39-.13.13-.25.23-.38.29-.13.06-.25.09-.39.08-.21,0-.41,0-.6,0s-.36-.03-.52-.05c-.16-.02-.3-.05-.43-.07-.13-.02-.24-.06-.35-.1-.11-.04-.2-.08-.28-.1-.08-.03-.16-.06-.23-.1-.07-.04-.13-.07-.17-.1s-.08-.05-.13-.08c-.05-.03-.07-.05-.07-.06-.38-.26-.61-.68-.68-1.28s0-1.24.2-1.94.52-1.43.93-2.18c.42-.75.9-1.42,1.46-2,.24-.26.56-.51.95-.77.4-.26.83-.47,1.31-.65s.93-.28,1.36-.31c.43-.03.81.07,1.14.31.33.24.54.62.63,1.15.26-.48.5-.83.69-1.05.16-.2.38-.26.67-.17.28.09.55.23.8.4.25.18.42.32.5.43.25.35.29.74.12,1.17-1.43,3.18-2.22,5.17-2.38,5.97-.09.44-.05.66.12.66,1.01-.47,2.31-1.62,3.91-3.44.07-.08.17-.14.31-.16Zm-9.34,3.43c.11.08.26.02.46-.15.2-.18.42-.44.68-.78s.5-.71.74-1.09c.25-.38.49-.79.72-1.21.13-.31.41-.91.83-1.78-.33,0-.44-.1-.34-.32.32-.45.51-.85.59-1.2s.06-.6-.03-.75c-.09-.15-.22-.25-.38-.3-.42.14-.93.72-1.53,1.73-.6,1.02-1.08,2.11-1.44,3.29-.36,1.18-.47,2.03-.31,2.56Z" fill="#0087ca" stroke-width="0"/>
        <path d="m157.3,72.55c.13.04.23.1.29.19s.06.18,0,.26c-.73.9-1.37,1.66-1.94,2.27-.56.61-1.03,1.09-1.41,1.42-.38.34-.74.59-1.08.77s-.62.28-.82.32c-.2.04-.47.07-.78.08-.24,0-.48-.03-.71-.08-.24-.05-.49-.16-.75-.32-.27-.16-.47-.38-.62-.67-.15-.29-.25-.66-.31-1.11-.06-.46,0-1.01.17-1.65.13-.55.4-1.33.79-2.34.4-1,.76-1.87,1.09-2.61l.48-1.09c.11-.05.43,0,.97.13.54.13,1.05.33,1.52.58.47.25.65.5.55.73-.23.44-.46.93-.71,1.47-.25.54-.49,1.12-.73,1.74-.24.62-.44,1.19-.6,1.71-.15.52-.25.97-.29,1.36-.04.39.03.63.2.71.21.08.71-.24,1.5-.95s1.64-1.62,2.55-2.72c.17-.2.39-.27.66-.19Zm-4.15-5.53c-.24-.06-.41-.18-.52-.35-.11-.17-.11-.33-.02-.5l1.01-1.78c.09-.17.26-.29.5-.36s.48-.08.71-.01l1.43.39c.25.07.43.19.53.36.1.16.1.33,0,.5l-.99,1.78c-.09.16-.26.29-.51.36-.24.07-.49.07-.72,0l-1.43-.39Z" fill="#0087ca" stroke-width="0"/>
        <path d="m161.66,74.91c.13-.03.26-.02.38.03.12.05.2.12.24.22.04.09.03.18-.04.26-.37.44-.72.85-1.05,1.22-.15.14-.35.35-.62.64s-.49.52-.68.7c-.18.18-.41.38-.68.6-.27.22-.56.4-.87.55s-.65.26-1,.33c-.45.08-.83.09-1.14.04s-.57-.15-.78-.26c-.21-.12-.37-.28-.48-.49-.11-.21-.18-.42-.23-.64s-.06-.45-.04-.71c.02-.26.05-.5.1-.73.05-.22.1-.44.17-.66,1.83-5.98,3.23-9.91,4.21-11.8.16-.22.41-.28.75-.19s.68.25,1.02.46c.34.21.54.37.61.48.26.41.32.85.18,1.33-.13.36-.41,1.1-.84,2.22s-.81,2.14-1.14,3.04c-.33.9-.67,1.87-1.02,2.91-.35,1.04-.6,1.91-.73,2.6-.14.69-.15,1.13-.03,1.33.94-.58,2.08-1.68,3.43-3.3.07-.08.17-.14.3-.16Z" fill="#0087ca" stroke-width="0"/>
      </g>
      <g>
        <polygon points="129.67 53.23 146.69 26.03 133.76 12.5 129.67 53.23" fill="#63b6df" opacity=".6" stroke-width="0"/>
        <polygon points="119.27 20.52 129.67 53.23 133.76 12.5 119.27 20.52" fill="#0087ca" opacity=".6" stroke-width="0"/>
        <circle cx="135.72" cy="4.26" r="4.26" stroke-width="0"/>
      </g>
      <line x1="129.67" y1="53.23" x2="133.76" y2="12.5" fill="none" opacity=".5" stroke="#fff" stroke-miterlimit="10" stroke-width=".75"/>
    </g>
  </g>
</svg>